<svg width="64" height="64" version="1.1" viewBox="0 0 16.9 16.9" xmlns="http://www.w3.org/2000/svg">
 <rect width="16.9" height="16.9" ry="1.77" fill="#ececec"/>
 <g transform="matrix(1.21 0 0 1.21 -1.09 -.813)">
  <g transform="matrix(.812 0 0 .812 22.3 -3.23)" fill="#666" stroke-linecap="round" stroke-linejoin="round">
   <circle cx="-14" cy="10.4" r="2" stroke-width=".886"/>
   <path transform="scale(.265)" d="m-57.5 47.9c-5.59 0-10.1 4.5-10.1 10.1v9.29h29.7v-9.29c0-5.59-4.5-10.1-10.1-10.1z" stroke-width="3.35"/>
  </g>
  <g transform="translate(19.5 -5.56)" fill="#3e3e7d" stroke-linecap="round" stroke-linejoin="round">
   <circle cx="-14" cy="10.4" r="2" stroke-width=".886"/>
   <path transform="scale(.265)" d="m-57.5 47.9c-5.59 0-10.1 4.5-10.1 10.1v9.29h29.7v-9.29c0-5.59-4.5-10.1-10.1-10.1z" stroke-width="3.35"/>
  </g>
  <g transform="matrix(.714 .714 -.714 .714 11.6 -36.9)">
   <g transform="matrix(.743 0 0 .743 6.46 7.5)">
    <path d="m28.5 31.6c-2.28 0-4.13 1.85-4.13 4.13s1.85 4.13 4.13 4.13c2.28 0 4.13-1.85 4.13-4.13s-1.85-4.13-4.13-4.13zm0 .766c1.86 0 3.36 1.5 3.36 3.36 0 1.86-1.5 3.36-3.36 3.36-1.86 0-3.36-1.5-3.36-3.36 0-1.86 1.5-3.36 3.36-3.36z" color="#000000" color-rendering="auto" dominant-baseline="auto" fill="#1a1a1a" image-rendering="auto" shape-rendering="auto" solid-color="#000000" stop-color="#000000" style="font-feature-settings:normal;font-variant-alternates:normal;font-variant-caps:normal;font-variant-east-asian:normal;font-variant-ligatures:normal;font-variant-numeric:normal;font-variant-position:normal;font-variation-settings:normal;inline-size:0;isolation:auto;mix-blend-mode:normal;shape-margin:0;shape-padding:0;text-decoration-color:#000000;text-decoration-line:none;text-decoration-style:solid;text-indent:0;text-orientation:mixed;text-transform:none;white-space:normal"/>
    <path d="m32.3 35.2 8.93-.0856v1.34l-8.93-.0856z" fill="#1a1a1a"/>
    <path d="m28.5 32.4c1.86 0 3.36 1.5 3.36 3.36 0 1.86-1.5 3.36-3.36 3.36-1.86 0-3.36-1.5-3.36-3.36 0-1.86 1.5-3.36 3.36-3.36z" color="#000000" color-rendering="auto" dominant-baseline="auto" fill="#f9f9f9" fill-opacity=".249" image-rendering="auto" shape-rendering="auto" solid-color="#000000" stop-color="#000000" style="font-feature-settings:normal;font-variant-alternates:normal;font-variant-caps:normal;font-variant-east-asian:normal;font-variant-ligatures:normal;font-variant-numeric:normal;font-variant-position:normal;font-variation-settings:normal;inline-size:0;isolation:auto;mix-blend-mode:normal;shape-margin:0;shape-padding:0;text-decoration-color:#000000;text-decoration-line:none;text-decoration-style:solid;text-indent:0;text-orientation:mixed;text-transform:none;white-space:normal"/>
    <path d="m25.7 34.5c-.54 1.34-.103 2.17.253 3.04.0175.0428.0367.0772.097-.0178.209-.329.249-.35.707-.806-.898-.917-.762-1.52-.748-2.59l-.182.185c-.0654.0664-.0966.119-.127.195z" fill="#fff" fill-opacity=".418"/>
   </g>
  </g>
 </g>
</svg>
